<svg xmlns="http://www.w3.org/2000/svg" width="45.508" height="45.508" viewBox="0 0 45.508 45.508">
  <defs>
    <style>
      .cls-1 {
        fill: #a3c4d6;
      }
    </style>
  </defs>
  <g id="factory" transform="translate(0)">
    <path id="Pfad_1" data-name="Pfad 1" class="cls-1" d="M44.97,21.684l-10.755-8a1.333,1.333,0,0,0-2.129,1.07v5.333l-8.533-6.4a1.333,1.333,0,0,0-2.133,1.067v6.666H18.754V1.333A1.333,1.333,0,0,0,17.421,0H12.088a1.333,1.333,0,0,0-1.333,1.333V21.421H8V1.333A1.333,1.333,0,0,0,6.666,0H1.333A1.333,1.333,0,0,0,0,1.333V44.175a1.333,1.333,0,0,0,1.333,1.333H44.175a1.333,1.333,0,0,0,1.333-1.333V22.754A1.333,1.333,0,0,0,44.97,21.684ZM13.421,2.666h2.666V5.422H13.421Zm0,5.422h2.666v2.666H13.421Zm0,5.333h2.666v2.666H13.421Zm0,5.333h2.666v2.666H13.421ZM2.666,2.666H5.333V5.422H2.666Zm0,5.422H5.333v2.666H2.666Zm0,5.333H5.333v2.666H2.666Zm0,5.333H5.333v2.666H2.666ZM13.421,42.841H8V34.753h5.422Zm29.42,0H16.088V33.42a1.333,1.333,0,0,0-1.333-1.333H6.666A1.333,1.333,0,0,0,5.333,33.42v9.422H2.666V24.087H22.754a1.333,1.333,0,0,0,1.333-1.333V17.421l8.533,6.4a1.333,1.333,0,0,0,2.133-1.067V17.408l8.088,6.016Zm0,0" transform="translate(0)"/>
    <path id="Pfad_2" data-name="Pfad 2" class="cls-1" d="M215,301h-2.666a1.333,1.333,0,1,0,0,2.666H215A1.333,1.333,0,1,0,215,301Zm0,0" transform="translate(-192.246 -274.246)"/>
    <path id="Pfad_3" data-name="Pfad 3" class="cls-1" d="M215,361h-2.666a1.333,1.333,0,1,0,0,2.666H215A1.333,1.333,0,1,0,215,361Zm0,0" transform="translate(-192.246 -328.913)"/>
    <path id="Pfad_4" data-name="Pfad 4" class="cls-1" d="M305,361h-2.666a1.333,1.333,0,1,0,0,2.666H305A1.333,1.333,0,1,0,305,361Zm0,0" transform="translate(-274.246 -328.913)"/>
    <path id="Pfad_5" data-name="Pfad 5" class="cls-1" d="M305,301h-2.666a1.333,1.333,0,1,0,0,2.666H305A1.333,1.333,0,1,0,305,301Zm0,0" transform="translate(-274.246 -274.246)"/>
    <path id="Pfad_6" data-name="Pfad 6" class="cls-1" d="M392.333,303.666H395A1.333,1.333,0,1,0,395,301h-2.666a1.333,1.333,0,1,0,0,2.666Zm0,0" transform="translate(-356.247 -274.246)"/>
    <path id="Pfad_7" data-name="Pfad 7" class="cls-1" d="M395,361h-2.666a1.333,1.333,0,0,0,0,2.666H395A1.333,1.333,0,1,0,395,361Zm0,0" transform="translate(-356.247 -328.913)"/>
    <path id="Pfad_8" data-name="Pfad 8" class="cls-1" d="M215,421h-2.666a1.333,1.333,0,1,0,0,2.666H215A1.333,1.333,0,1,0,215,421Zm0,0" transform="translate(-192.246 -383.581)"/>
    <path id="Pfad_9" data-name="Pfad 9" class="cls-1" d="M305,421h-2.666a1.333,1.333,0,1,0,0,2.666H305A1.333,1.333,0,1,0,305,421Zm0,0" transform="translate(-274.246 -383.581)"/>
    <path id="Pfad_10" data-name="Pfad 10" class="cls-1" d="M395,421h-2.666a1.333,1.333,0,1,0,0,2.666H395A1.333,1.333,0,1,0,395,421Zm0,0" transform="translate(-356.247 -383.581)"/>
  </g>
</svg>
