<svg id="medical" xmlns="http://www.w3.org/2000/svg" width="39.028" height="43.348" viewBox="0 0 39.028 43.348">
  <defs>
    <style>
      .cls-1 {
        fill: #a3c4d6;
      }
    </style>
  </defs>
  <path id="Pfad_11" data-name="Pfad 11" class="cls-1" d="M103.757,227.32a1.27,1.27,0,0,0-1.27-1.27H92.243a1.27,1.27,0,1,0,0,2.54h10.244a1.27,1.27,0,0,0,1.27-1.27Z" transform="translate(-85.813 -206.912)"/>
  <path id="Pfad_12" data-name="Pfad 12" class="cls-1" d="M97.28,286.05H92.192a1.27,1.27,0,1,0,0,2.54H97.28a1.27,1.27,0,1,0,0-2.54Z" transform="translate(-85.766 -261.832)"/>
  <path id="Pfad_13" data-name="Pfad 13" class="cls-1" d="M97.236,345.95H92.143a1.27,1.27,0,1,0,0,2.54h5.093a1.27,1.27,0,1,0,0-2.54Z" transform="translate(-85.721 -316.66)"/>
  <path id="Pfad_14" data-name="Pfad 14" class="cls-1" d="M137.641,82.712h2.506v2.506a1.27,1.27,0,0,0,2.54,0V82.712h2.506a1.27,1.27,0,1,0,0-2.54h-2.506V77.666a1.27,1.27,0,0,0-2.54,0v2.506h-2.506a1.27,1.27,0,0,0,0,2.54Z" transform="translate(-127.123 -69.928)"/>
  <path id="Pfad_15" data-name="Pfad 15" class="cls-1" d="M58.6,20.549V17.864h9.158a1.283,1.283,0,0,0,1.3-1.27V6.394A6.466,6.466,0,0,0,62.525,0H36.5a6.42,6.42,0,0,0-6.475,6.348V42.055a1.3,1.3,0,0,0,2.231.878l1.657-1.7,1.751,1.716a1.314,1.314,0,0,0,1.832,0l1.659-1.626,1.676,1.629a1.314,1.314,0,0,0,1.824,0l1.7-1.655,1.7,1.655a1.314,1.314,0,0,0,1.824,0l2.2-2.142a11.746,11.746,0,0,0,7.31,2.533,11.421,11.421,0,0,0,1.2-22.8ZM66.459,6.394v8.93H58.6V6.394a3.932,3.932,0,0,1,7.863,0ZM46.972,40.267l-1.7-1.654a1.314,1.314,0,0,0-1.824,0l-1.7,1.654-1.68-1.633a1.314,1.314,0,0,0-1.828,0l-1.655,1.622L34.81,38.523a1.313,1.313,0,0,0-1.851.02l-.342.35V6.348A3.851,3.851,0,0,1,36.5,2.54H57.328a6.28,6.28,0,0,0-1.322,3.854V20.57A11.529,11.529,0,0,0,45.738,31.919a11.235,11.235,0,0,0,2.523,7.093Zm10.425.542a8.892,8.892,0,1,1,9.067-8.89A8.99,8.99,0,0,1,57.4,40.808Z" transform="translate(-30.026 0)"/>
  <path id="Pfad_16" data-name="Pfad 16" class="cls-1" d="M312.225,306.8c-1.06-.826-2.467-.994-2.736-1.478a.433.433,0,0,1,.2-.485,1.188,1.188,0,0,1,1.133.083,1.27,1.27,0,0,0,1.722-1.867,3.193,3.193,0,0,0-1.215-.682,1.27,1.27,0,0,0-2.539.021v.064a2.959,2.959,0,0,0-1.52,4.1,4.145,4.145,0,0,0,2.362,1.744c.526.208,1.407.521,1.344,1.084a.907.907,0,0,1-.513.666,2.216,2.216,0,0,1-1.8-.271,1.27,1.27,0,0,0-1.391,2.126,4.873,4.873,0,0,0,1.515.633v.022a1.27,1.27,0,1,0,2.54,0v-.121A3.235,3.235,0,0,0,312.225,306.8Z" transform="translate(-282.703 -275.628)"/>
</svg>
