<svg id="sales" xmlns="http://www.w3.org/2000/svg" width="45.708" height="35.743" viewBox="0 0 45.708 35.743">
  <defs>
    <style>
      .cls-1 {
        fill: #a3c4d6;
      }
    </style>
  </defs>
  <g id="Gruppe_2" data-name="Gruppe 2" transform="translate(0 8.548)">
    <path id="Pfad_17" data-name="Pfad 17" class="cls-1" d="M44.366,176.008h-2.7V158.141a1.341,1.341,0,0,0-1.342-1.34h-7.41a1.341,1.341,0,0,0-1.342,1.34v17.867H27.9V152.833a1.341,1.341,0,0,0-1.342-1.34h-7.41a1.341,1.341,0,0,0-1.342,1.34v23.175h-3.67V156.723a1.341,1.341,0,0,0-1.342-1.34H5.385a1.341,1.341,0,0,0-1.342,1.34v19.285h-2.7a1.34,1.34,0,1,0,0,2.68H44.366a1.34,1.34,0,1,0,0-2.68Zm-37.638,0V158.063h4.726v17.945Zm13.764,0V154.173h4.726v21.835Zm13.764,0V159.481H38.98v16.527Z" transform="translate(0 -151.493)"/>
  </g>
  <path id="Pfad_18" data-name="Pfad 18" class="cls-1" d="M52.015,60.882a1.342,1.342,0,0,0-1.029-1.421l-4.329-1.052a1.34,1.34,0,0,0-.633,2.6l1.224.3-3.471,2.142-13.16-7.492a1.339,1.339,0,0,0-1.232-.049L16.306,62.05l-6.253-3.9a1.34,1.34,0,1,0-1.419,2.273l6.872,4.289a1.34,1.34,0,0,0,1.279.076L29.9,58.631l13.247,7.541a1.383,1.383,0,0,0,1.366-.024l4.207-2.6-.28,1.312a1.34,1.34,0,0,0,2.62.56l.929-4.349a1.544,1.544,0,0,0,.03-.193Z" transform="translate(-7.288 -55.784)"/>
</svg>
